<?xml version="1.0" encoding="UTF-8"?>
<svg width="51px" height="39px" viewBox="0 0 51 39" version="1.1" xmlns="http://www.w3.org/2000/svg" xmlns:xlink="http://www.w3.org/1999/xlink">
    <!-- Generator: sketchtool 50 (54983) - http://www.bohemiancoding.com/sketch -->
    <title>85B9D06B-500C-4FD3-AD8B-3C1ED7FC5AFE</title>
    <desc>Created with sketchtool.</desc>
    <defs>
        <path d="M63.483248,21.2848752 C63.0093783,20.8758566 62.2798051,20.9115174 61.8519394,21.3645717 L33.14467,51.4998183 L20.7611187,40.7942842 C20.2886601,40.3855358 19.5579581,40.4206563 19.1298101,40.8739807 L16.2975988,43.8754313 C16.0924152,44.0929082 15.985731,44.3798155 16.001536,44.6726663 C16.0170589,44.9655171 16.1533776,45.2402674 16.3808576,45.4369421 L32.7328916,59.5732072 C32.8895311,59.7085562 33.0856832,59.793926 33.2928425,59.8287763 C33.3775125,59.8476873 33.4644404,59.8571429 33.5524972,59.8571429 C33.9160137,59.8414737 34.2041739,59.7107175 34.4096397,59.4927003 L66.7024012,25.5571471 C66.9075848,25.3396702 67.014269,25.0527629 66.998464,24.7599121 C66.9829411,24.4673314 66.8466224,24.192311 66.6191424,23.9956363 L63.483248,21.2848752 Z" id="path-1"></path>
    </defs>
    <g id="Styles" stroke="none" stroke-width="1" fill="none" fill-rule="evenodd">
        <g transform="translate(-266.000000, -2310.000000)" id="Icon-check">
            <g transform="translate(250.000000, 2289.000000)">
                <mask id="mask-2" fill="white">
                    <use xlink:href="#path-1"></use>
                </mask>
                <use id="icon-check" fill="#212121" fill-rule="nonzero" xlink:href="#path-1"></use>
            </g>
        </g>
    </g>
</svg>